# xmcd CD database file
#
# Track frame offsets:
#	150
#	16100
#	32855
#	46675
#	64322
#	73537
#	92992
#	103410
#	115205
#	133205
#	145532
#	162820
#	175837
#	190990
#	205975
#	216235
#	233140
#	246572
#	265330
#	274047
#
# Disc length: 3791 seconds
#
# Revision: 1
# Processed by: cddbd v1.5.2PL0 Copyright (c) Steve Scherf et al.
# Submitted via: CDex 1.70beta2
#
DISCID=2f0ecd14
DTITLE=Various Artist - Zlato České Country 1
DYEAR=2003
DGENRE=Country
TTITLE0=Babička Mary
TTITLE1=Sedm dostavníků
TTITLE2=Colorado
TTITLE3=Co se bude dít
TTITLE4=Rikatado
TTITLE5=Balíček karet
TTITLE6=Když náš táta hrál
TTITLE7=Rosa na kolejích
TTITLE8=Tam u dvou cest
TTITLE9=Veď mě dál cesto má
TTITLE10=Paní má se má
TTITLE11=Snídaně v trávě
TTITLE12=Tunel jménem čas
TTITLE13=Billy The Kid
TTITLE14=Chajda kůrová
TTITLE15=Šéfe
TTITLE16=Až uslyším hvízdání
TTITLE17=Báječná ženská
TTITLE18=Nebe modrý jako džíny
TTITLE19=Víkend
EXTD=YEAR: 2003
EXTT0=
EXTT1=
EXTT2=
EXTT3=
EXTT4=
EXTT5=
EXTT6=
EXTT7=
EXTT8=
EXTT9=
EXTT10=
EXTT11=
EXTT12=
EXTT13=
EXTT14=
EXTT15=
EXTT16=
EXTT17=
EXTT18=
EXTT19=
PLAYORDER=
